- 
http://www.Speed.Cd 
       
http://www.Speed.Cd      fast  and The Hottest Private Tracker on the net

(((--Submit for invite!!--)))

Please Seed back to make the speed Faster!!!

------------------nfo--------------------------
-








































          
          
              
              
                    
                    
                    
                    

The.Great.Waldo.Pepper.1975.DVDRip.x264.AC3-SiC

Poster:
[img]http://img830.imageshack.us/img830/2857/posterdj.jpg[/img]

IMDB Link: 
http://www.imdb.com/title/tt0073075/

Description:
A biplane pilot who had missed flying in WWI takes up barnstorming and later a movie career in his quest for the glory he had missed, eventually getting a chance to prove himself in a film depicting the dogfights in the Great War.

MediaInfo:
General
Complete name                    : The.Great.Waldo.Pepper.1975.DVDRip.x264.AC3-SiC.mkv
Format                           : Matroska
Format version                   : Version 2
File size                        : 1.53 GiB
Duration                         : 1h 47mn
Overall bit rate                 : 2 039 Kbps
Encoded date                     : UTC 2011-08-24 23:00:05
Writing application              : mkvmerge v4.9.1 ('Ich will') built on Jul 11 2011 23:53:15
Writing library                  : libebml v1.2.1 + libmatroska v1.1.1

Video
ID                               : 2
Format                           : AVC
Format/Info                      : Advanced Video Codec
Format profile                   : High@L3.0
Format settings, CABAC           : Yes
Format settings, ReFrames        : 4 frames
Muxing mode                      : Header stripping
Codec ID                         : V_MPEG4/ISO/AVC
Duration                         : 1h 47mn
Bit rate                         : 1 806 Kbps
Width                            : 720 pixels
Height                           : 368 pixels
Display aspect ratio             : 2.40:1
Original display aspect ratio    : 2.40:1
Frame rate                       : 23.976 fps
Color space                      : YUV
Chroma subsampling               : 4:2:0
Bit depth                        : 8 bits
Scan type                        : Progressive
Bits/(Pixel*Frame)               : 0.284
Stream size                      : 1.36 GiB (89%)
Writing library                  : x264 core 115 r1995 c1e60b9
Encoding settings                : cabac=1 / ref=3 / deblock=1:0:0 / analyse=0x3:0x133 / me=umh / subme=7 / psy=1 / psy_rd=1.00:0.00 / mixed_ref=1 / me_range=16 / chroma_me=1 / trellis=1 / 8x8dct=1 / cqm=0 / deadzone=21,11 / fast_pskip=1 / chroma_qp_offset=-2 / threads=9 / sliced_threads=0 / nr=0 / decimate=1 / interlaced=0 / bluray_compat=0 / constrained_intra=0 / bframes=3 / b_pyramid=2 / b_adapt=1 / b_bias=0 / direct=1 / weightb=1 / open_gop=1 / weightp=2 / keyint=250 / keyint_min=23 / scenecut=40 / intra_refresh=0 / rc_lookahead=40 / rc=crf / mbtree=1 / crf=18.0 / qcomp=0.60 / qpmin=0 / qpmax=69 / qpstep=4 / ip_ratio=1.40 / aq=1:1.00
Language                         : English

Audio
ID                               : 1
Format                           : AC-3
Format/Info                      : Audio Coding 3
Mode extension                   : CM (complete main)
Muxing mode                      : Header stripping
Codec ID                         : A_AC3
Duration                         : 1h 47mn
Bit rate mode                    : Constant
Bit rate                         : 192 Kbps
Channel(s)                       : 2 channels
Channel positions                : Front: L R
Sampling rate                    : 48.0 KHz
Bit depth                        : 16 bits
Compression mode                 : Lossy
Stream size                      : 148 MiB (9%)


Screenshots:
[img]http://img405.imageshack.us/img405/5468/vlcsnap2011082423h04m51.png[/img]
[img]http://img98.imageshack.us/img98/4986/vlcsnap2011082423h05m03.png[/img]
[img]http://img64.imageshack.us/img64/2822/vlcsnap2011082423h05m26.png[/img]
[img]http://img21.imageshack.us/img21/4139/vlcsnap2011082423h05m36.png[/img]
[img]http://img84.imageshack.us/img84/4117/vlcsnap2011082423h05m54.png[/img]

Note: N/A

Encoder: Brian

Enjoy!

Respects to CaptainHomey, Cyanide, CM8, Rx, THC, ELEKTRI4KA, 
Killerhz, PA, YeFsTe, BoxSlots, MrRep and everyone in the struggle...